# xmcd CD database file
#
# Track frame offsets:
#	150
#	20571
#	46545
#	74023
#	94694
#	113541
#	147961
#	174819
#	194863
#	215148
#	250074
#
# Disc length: 3622 seconds
#
# Revision: 1
# Processed by: cddbd v1.5.1PL0 Copyright (c) Steve Scherf et al.
# Submitted via: CDex 1.51
#
DISCID=9b0e240b
DTITLE=Tomoko Ohno and Andrés Boiarsky - Shadows of Spring
DYEAR=2004
DGENRE=Jazz
TTITLE0=Black Mountains
TTITLE1=Shadows of Spring
TTITLE2=Casa Mila
TTITLE3=Funk A Leufú
TTITLE4=Invierno Porteño
TTITLE5=In Your Sweet Wavw
TTITLE6=Alone Again
TTITLE7=Lazy Bird
TTITLE8=Samba de Sorvete
TTITLE9=Anabelle
TTITLE10=Oblivion
EXTD=YEAR: 2004
EXTT0=
EXTT1=
EXTT2=
EXTT3=
EXTT4=
EXTT5=
EXTT6=
EXTT7=
EXTT8=
EXTT9=
EXTT10=
PLAYORDER=
